<mxfile host="Electron" modified="2024-04-11T16:44:21.940Z" agent="Mozilla/5.0 (Windows NT 10.0; Win64; x64) AppleWebKit/537.36 (KHTML, like Gecko) draw.io/24.1.0 Chrome/120.0.6099.109 Electron/28.1.0 Safari/537.36" etag="mM78YF0HezUm-MOLLt70" version="24.1.0" type="device">
  <diagram name="Page-1" id="mwfjklJhyh0E9qP5Q_vB">
    <mxGraphModel dx="724" dy="428" grid="1" gridSize="10" guides="1" tooltips="1" connect="1" arrows="1" fold="1" page="1" pageScale="1" pageWidth="850" pageHeight="1100" math="0" shadow="0">
      <root>
        <mxCell id="0" />
        <mxCell id="1" parent="0" />
        <mxCell id="P71KxlZ_9sVJMRp0dEbI-1" value="EMI Filter&amp;nbsp;&lt;div&gt;Zout&lt;/div&gt;" style="whiteSpace=wrap;html=1;aspect=fixed;fillColor=#d5e8d4;strokeColor=#82b366;" vertex="1" parent="1">
          <mxGeometry x="180" y="228" width="80" height="80" as="geometry" />
        </mxCell>
        <mxCell id="P71KxlZ_9sVJMRp0dEbI-2" value="&lt;div&gt;SPS&lt;/div&gt;&lt;div&gt;Zin&lt;/div&gt;" style="whiteSpace=wrap;html=1;aspect=fixed;fillColor=#fff2cc;strokeColor=#d6b656;" vertex="1" parent="1">
          <mxGeometry x="385" y="230" width="80" height="80" as="geometry" />
        </mxCell>
        <mxCell id="P71KxlZ_9sVJMRp0dEbI-3" value="" style="shape=flexArrow;endArrow=classic;startArrow=classic;html=1;rounded=0;" edge="1" parent="1">
          <mxGeometry width="100" height="100" relative="1" as="geometry">
            <mxPoint x="260" y="269.5" as="sourcePoint" />
            <mxPoint x="380" y="269.5" as="targetPoint" />
          </mxGeometry>
        </mxCell>
        <mxCell id="P71KxlZ_9sVJMRp0dEbI-5" value="&lt;b&gt;&lt;font color=&quot;#6666ff&quot; style=&quot;font-size: 16px;&quot;&gt;&amp;lt;&amp;lt;&lt;/font&gt;&lt;/b&gt;" style="text;html=1;align=center;verticalAlign=middle;resizable=0;points=[];autosize=1;strokeColor=none;fillColor=none;" vertex="1" parent="1">
          <mxGeometry x="300" y="228" width="40" height="30" as="geometry" />
        </mxCell>
        <mxCell id="P71KxlZ_9sVJMRp0dEbI-14" style="edgeStyle=orthogonalEdgeStyle;rounded=0;orthogonalLoop=1;jettySize=auto;html=1;exitX=1;exitY=1;exitDx=0;exitDy=0;exitPerimeter=0;endArrow=none;endFill=0;" edge="1" parent="1" source="P71KxlZ_9sVJMRp0dEbI-6">
          <mxGeometry relative="1" as="geometry">
            <mxPoint x="470" y="285.1034482758621" as="targetPoint" />
          </mxGeometry>
        </mxCell>
        <mxCell id="P71KxlZ_9sVJMRp0dEbI-6" value="" style="verticalLabelPosition=bottom;shadow=0;dashed=0;align=center;html=1;verticalAlign=top;shape=mxgraph.electrical.rot_mech.field;pointerEvents=1;direction=south;" vertex="1" parent="1">
          <mxGeometry x="500" y="255" width="10" height="30" as="geometry" />
        </mxCell>
        <mxCell id="P71KxlZ_9sVJMRp0dEbI-12" style="edgeStyle=orthogonalEdgeStyle;rounded=0;orthogonalLoop=1;jettySize=auto;html=1;exitX=0.5;exitY=0;exitDx=0;exitDy=0;endArrow=none;endFill=0;entryX=0;entryY=0.125;entryDx=0;entryDy=0;entryPerimeter=0;" edge="1" parent="1" source="P71KxlZ_9sVJMRp0dEbI-8" target="P71KxlZ_9sVJMRp0dEbI-1">
          <mxGeometry relative="1" as="geometry">
            <mxPoint x="135.31034482758628" y="240" as="targetPoint" />
          </mxGeometry>
        </mxCell>
        <mxCell id="P71KxlZ_9sVJMRp0dEbI-13" style="edgeStyle=orthogonalEdgeStyle;rounded=0;orthogonalLoop=1;jettySize=auto;html=1;exitX=0.5;exitY=1;exitDx=0;exitDy=0;endArrow=none;endFill=0;entryX=-0.031;entryY=0.894;entryDx=0;entryDy=0;entryPerimeter=0;" edge="1" parent="1" source="P71KxlZ_9sVJMRp0dEbI-8" target="P71KxlZ_9sVJMRp0dEbI-1">
          <mxGeometry relative="1" as="geometry">
            <mxPoint x="150" y="300" as="targetPoint" />
            <Array as="points">
              <mxPoint x="135" y="300" />
              <mxPoint x="178" y="300" />
            </Array>
          </mxGeometry>
        </mxCell>
        <mxCell id="P71KxlZ_9sVJMRp0dEbI-8" value="&lt;b&gt;&lt;font style=&quot;font-size: 17px;&quot;&gt;~&lt;/font&gt;&lt;/b&gt;" style="ellipse;whiteSpace=wrap;html=1;aspect=fixed;" vertex="1" parent="1">
          <mxGeometry x="120" y="258" width="30" height="30" as="geometry" />
        </mxCell>
        <mxCell id="P71KxlZ_9sVJMRp0dEbI-15" style="edgeStyle=orthogonalEdgeStyle;rounded=0;orthogonalLoop=1;jettySize=auto;html=1;exitX=0;exitY=1;exitDx=0;exitDy=0;exitPerimeter=0;entryX=1.055;entryY=0.356;entryDx=0;entryDy=0;entryPerimeter=0;endArrow=none;endFill=0;" edge="1" parent="1" source="P71KxlZ_9sVJMRp0dEbI-6" target="P71KxlZ_9sVJMRp0dEbI-2">
          <mxGeometry relative="1" as="geometry" />
        </mxCell>
      </root>
    </mxGraphModel>
  </diagram>
</mxfile>
